<svg width="85" height="22" viewBox="0 0 85 22" fill="none" xmlns="http://www.w3.org/2000/svg">
<path d="M13.9262 0.687999L15.8302 5.28C15.7369 5.35467 15.6342 5.42 15.5222 5.476C15.4102 5.532 15.3076 5.59733 15.2142 5.672C14.4489 4.40267 13.6929 3.46933 12.9462 2.872C12.4049 2.44267 11.8356 2.13467 11.2382 1.948C10.6596 1.76133 10.0529 1.668 9.41825 1.668H6.73025C6.45025 1.668 6.16092 1.68667 5.86225 1.724C5.58225 1.74267 5.35825 1.78 5.19025 1.836C4.74225 2.04133 4.51825 2.508 4.51825 3.236V9.536H8.63425C9.54892 9.536 10.1742 9.34 10.5102 8.948C10.9396 8.46267 11.1542 7.576 11.1542 6.288H11.9662V14.1H11.1542C11.1542 12.644 10.9396 11.6733 10.5102 11.188C10.1556 10.7773 9.53025 10.572 8.63425 10.572H4.51825V17.488C4.51825 18.2533 4.65825 18.7293 4.93825 18.916C5.23692 19.1587 6.02092 19.28 7.29025 19.28V20.204H0.374249V19.308C1.38225 19.308 2.03558 19.1867 2.33425 18.944C2.59558 18.72 2.72625 18.244 2.72625 17.516V3.236C2.72625 2.71333 2.61425 2.34 2.39025 2.116C2.05425 1.78 1.38225 1.612 0.374249 1.612V0.687999H13.9262ZM26.3987 20.204H19.7907V19.308C20.7054 19.308 21.34 19.1867 21.6947 18.944C22.012 18.72 22.1707 18.3467 22.1707 17.824V3.236C22.1707 2.63867 22.012 2.20933 21.6947 1.948C21.3214 1.68667 20.6867 1.556 19.7907 1.556V0.687999H26.3987V1.556C26.0627 1.556 25.764 1.584 25.5027 1.64C25.26 1.67733 25.0454 1.724 24.8587 1.78C24.504 1.91067 24.2707 2.09733 24.1587 2.34C24.0467 2.564 23.9907 2.86267 23.9907 3.236V17.824C23.9907 18.384 24.1307 18.7573 24.4107 18.944C24.784 19.1867 25.4467 19.308 26.3987 19.308V20.204ZM49.1389 1.556C48.6535 1.556 48.2522 1.584 47.9349 1.64C47.6362 1.696 47.4029 1.78 47.2349 1.892C47.0669 1.98533 46.9549 2.09733 46.8989 2.228C46.8429 2.35867 46.8149 2.508 46.8149 2.676C46.7962 2.69467 46.7869 2.79733 46.7869 2.984V20.288H46.0029C43.9309 17.4693 41.8869 14.6787 39.8709 11.916C37.8549 9.15333 35.8295 6.36267 33.7949 3.544V17.628C33.7949 18.2627 33.9442 18.7013 34.2429 18.944C34.5602 19.1867 35.1762 19.308 36.0909 19.308V20.204H30.3509V19.308C31.2095 19.308 31.8255 19.1773 32.1989 18.916C32.5162 18.636 32.6749 18.2067 32.6749 17.628V3.04C32.6749 2.57333 32.5069 2.228 32.1709 2.004C31.8535 1.76133 31.2469 1.64 30.3509 1.64V0.687999H33.9069C35.8855 3.33867 37.8455 5.96133 39.7869 8.556C41.7469 11.132 43.7162 13.7453 45.6949 16.396V3.04C45.6949 2.48 45.5269 2.09733 45.1909 1.892C44.8175 1.668 44.2295 1.556 43.4269 1.556V0.687999H49.1389V1.556ZM68.1126 15.052C68.2059 15.108 68.3086 15.164 68.4206 15.22C68.5326 15.276 68.6353 15.332 68.7286 15.388C68.4113 16.228 68.1033 17.0493 67.8046 17.852C67.5246 18.636 67.2259 19.42 66.9086 20.204H52.4886V19.308C53.3473 19.308 53.9726 19.168 54.3646 18.888C54.6819 18.608 54.8406 18.188 54.8406 17.628V3.236C54.8406 3.03067 54.8126 2.85333 54.7566 2.704C54.6633 2.46133 54.5513 2.26533 54.4206 2.116C54.0473 1.78 53.4033 1.612 52.4886 1.612V0.687999H66.2646C66.5819 1.49067 66.8899 2.284 67.1886 3.068C67.5059 3.852 67.8233 4.64533 68.1406 5.448C68.0473 5.504 67.9539 5.56933 67.8606 5.644C67.7673 5.7 67.6739 5.74667 67.5806 5.784C67.1886 5 66.7499 4.356 66.2646 3.852C65.7793 3.348 65.3313 2.956 64.9206 2.676C63.9313 2.004 62.7833 1.668 61.4766 1.668H58.5086C57.9113 1.668 57.4259 1.79867 57.0526 2.06C56.7726 2.284 56.6326 2.676 56.6326 3.236V9.536H60.8326C61.7286 9.536 62.3446 9.34 62.6806 8.948C63.1099 8.46267 63.3246 7.548 63.3246 6.204H64.1646V13.96H63.3246C63.3246 12.5227 63.1099 11.5893 62.6806 11.16C62.3446 10.768 61.7286 10.572 60.8326 10.572H56.6326V17.656C56.6326 18.2347 56.7726 18.6453 57.0526 18.888C57.2393 19.0373 57.4539 19.1307 57.6966 19.168C57.9579 19.224 58.2473 19.252 58.5646 19.252H61.7846C63.2593 19.252 64.4073 18.9813 65.2286 18.44C65.7139 18.1227 66.1899 17.6747 66.6566 17.096C67.1419 16.5173 67.6273 15.836 68.1126 15.052ZM81.7783 20.092C81.7783 19.6627 81.9183 19.2987 82.1983 19C82.497 18.72 82.8423 18.58 83.2343 18.58C83.6637 18.58 84.0183 18.72 84.2983 19C84.597 19.2987 84.7463 19.6627 84.7463 20.092C84.7463 20.484 84.597 20.82 84.2983 21.1C84.0183 21.3987 83.6637 21.548 83.2343 21.548C82.8423 21.548 82.497 21.3987 82.1983 21.1C81.9183 20.82 81.7783 20.484 81.7783 20.092Z" fill="white"/>
</svg>
